<svg width="484" height="484" viewBox="0 0 484 484" fill="none" xmlns="http://www.w3.org/2000/svg">
<g clip-path="url(#clip0_2_15)">
<rect width="484" height="484" fill="white"/>
<rect width="484" height="484" fill="white"/>
<path d="M61.0628 -1.05847C60.4783 -1.64546 59.5285 -1.64742 58.9415 -1.06285L49.3759 8.46335C48.7889 9.04792 48.7869 9.99767 49.3715 10.5847C49.9561 11.1717 50.9058 11.1736 51.4928 10.589L59.9956 2.12132L68.4633 10.6241C69.0479 11.2111 69.9977 11.2131 70.5847 10.6285C71.1717 10.0439 71.1736 9.09417 70.589 8.50718L61.0628 -1.05847ZM60.5 484.003L61.5 0.00310012L58.5 -0.00309821L57.5 483.997L60.5 484.003Z" fill="#B5B5B5"/>
<path d="M485.058 337.063C485.645 336.478 485.647 335.529 485.063 334.942L475.537 325.376C474.952 324.789 474.002 324.787 473.415 325.372C472.828 325.956 472.826 326.906 473.411 327.493L481.879 335.996L473.376 344.463C472.789 345.048 472.787 345.998 473.372 346.585C473.956 347.172 474.906 347.174 475.493 346.589L485.058 337.063ZM-0.00309917 336.5L483.997 337.5L484.003 334.5L0.00309917 333.5L-0.00309917 336.5Z" fill="#B5B5B5"/>
<path d="M442.057 156V147.273H443.114V155.062H447.17V156H442.057ZM451.33 156.136C450.739 156.136 450.22 155.996 449.774 155.714C449.331 155.433 448.984 155.04 448.734 154.534C448.487 154.028 448.364 153.437 448.364 152.761C448.364 152.08 448.487 151.484 448.734 150.976C448.984 150.467 449.331 150.072 449.774 149.791C450.22 149.51 450.739 149.369 451.33 149.369C451.92 149.369 452.438 149.51 452.881 149.791C453.327 150.072 453.673 150.467 453.92 150.976C454.17 151.484 454.295 152.08 454.295 152.761C454.295 153.437 454.17 154.028 453.92 154.534C453.673 155.04 453.327 155.433 452.881 155.714C452.438 155.996 451.92 156.136 451.33 156.136ZM451.33 155.233C451.778 155.233 452.148 155.118 452.438 154.888C452.727 154.658 452.942 154.355 453.081 153.98C453.22 153.605 453.29 153.199 453.29 152.761C453.29 152.324 453.22 151.916 453.081 151.538C452.942 151.161 452.727 150.855 452.438 150.622C452.148 150.389 451.778 150.273 451.33 150.273C450.881 150.273 450.511 150.389 450.222 150.622C449.932 150.855 449.717 151.161 449.578 151.538C449.439 151.916 449.369 152.324 449.369 152.761C449.369 153.199 449.439 153.605 449.578 153.98C449.717 154.355 449.932 154.658 450.222 154.888C450.511 155.118 450.881 155.233 451.33 155.233ZM458.473 158.591C457.987 158.591 457.569 158.528 457.22 158.403C456.87 158.281 456.579 158.119 456.346 157.918C456.116 157.719 455.933 157.506 455.797 157.278L456.598 156.716C456.689 156.835 456.804 156.972 456.943 157.125C457.082 157.281 457.272 157.416 457.514 157.53C457.758 157.646 458.078 157.705 458.473 157.705C459.001 157.705 459.437 157.577 459.781 157.321C460.125 157.065 460.297 156.665 460.297 156.119V154.79H460.211C460.137 154.909 460.032 155.057 459.896 155.233C459.762 155.406 459.569 155.561 459.316 155.697C459.066 155.831 458.728 155.898 458.302 155.898C457.774 155.898 457.299 155.773 456.879 155.523C456.461 155.273 456.13 154.909 455.886 154.432C455.645 153.955 455.524 153.375 455.524 152.693C455.524 152.023 455.642 151.439 455.877 150.942C456.113 150.442 456.441 150.055 456.862 149.783C457.282 149.507 457.768 149.369 458.319 149.369C458.745 149.369 459.083 149.44 459.333 149.582C459.586 149.722 459.779 149.881 459.913 150.06C460.049 150.236 460.154 150.381 460.228 150.494H460.331V149.455H461.302V156.188C461.302 156.75 461.174 157.207 460.919 157.56C460.666 157.915 460.325 158.175 459.896 158.339C459.47 158.507 458.995 158.591 458.473 158.591ZM458.439 154.994C458.842 154.994 459.183 154.902 459.461 154.717C459.74 154.533 459.951 154.267 460.096 153.92C460.241 153.574 460.314 153.159 460.314 152.676C460.314 152.205 460.243 151.788 460.1 151.428C459.958 151.067 459.748 150.784 459.47 150.58C459.191 150.375 458.848 150.273 458.439 150.273C458.012 150.273 457.657 150.381 457.373 150.597C457.092 150.812 456.88 151.102 456.738 151.466C456.599 151.83 456.529 152.233 456.529 152.676C456.529 153.131 456.6 153.533 456.743 153.882C456.887 154.229 457.1 154.501 457.382 154.7C457.666 154.896 458.018 154.994 458.439 154.994ZM463.501 152.318C463.501 151.244 463.64 150.257 463.919 149.357C464.2 148.453 464.6 147.622 465.12 146.864H466.007C465.802 147.145 465.61 147.491 465.431 147.903C465.255 148.312 465.1 148.763 464.967 149.254C464.833 149.743 464.728 150.249 464.652 150.771C464.578 151.294 464.541 151.81 464.541 152.318C464.541 152.994 464.606 153.68 464.737 154.376C464.868 155.072 465.044 155.719 465.265 156.315C465.487 156.912 465.734 157.398 466.007 157.773H465.12C464.6 157.014 464.2 156.185 463.919 155.284C463.64 154.381 463.501 153.392 463.501 152.318ZM468.241 149.455L469.809 152.131L471.377 149.455H472.536L470.423 152.727L472.536 156H471.377L469.809 153.46L468.241 156H467.082L469.161 152.727L467.082 149.455H468.241ZM476.119 152.318C476.119 153.392 475.978 154.381 475.697 155.284C475.419 156.185 475.02 157.014 474.5 157.773H473.613C473.818 157.491 474.008 157.145 474.184 156.733C474.363 156.324 474.52 155.875 474.653 155.386C474.787 154.895 474.89 154.388 474.964 153.865C475.041 153.339 475.079 152.824 475.079 152.318C475.079 151.642 475.014 150.956 474.883 150.26C474.752 149.564 474.576 148.918 474.355 148.321C474.133 147.724 473.886 147.239 473.613 146.864H474.5C475.02 147.622 475.419 148.453 475.697 149.357C475.978 150.257 476.119 151.244 476.119 152.318Z" fill="#B5B5B5"/>
<path d="M32.5682 14.4545C32.3977 14.4545 32.2457 14.4403 32.1122 14.4119C31.9787 14.3864 31.8864 14.3608 31.8352 14.3352L32.0909 13.4489C32.3352 13.5114 32.5511 13.5341 32.7386 13.517C32.9261 13.5 33.0923 13.4162 33.2372 13.2656C33.3849 13.1179 33.5199 12.8778 33.642 12.5455L33.8295 12.0341L31.4091 5.45455H32.5L34.3068 10.6705H34.375L36.1818 5.45455H37.2727L34.4943 12.9545C34.3693 13.2926 34.2145 13.5724 34.0298 13.794C33.8452 14.0185 33.6307 14.1847 33.3864 14.2926C33.1449 14.4006 32.8722 14.4545 32.5682 14.4545Z" fill="#B5B5B5"/>
<path d="M463.67 346.455L465.239 349.131L466.807 346.455H467.966L465.852 349.727L467.966 353H466.807L465.239 350.46L463.67 353H462.511L464.591 349.727L462.511 346.455H463.67Z" fill="#B5B5B5"/>
<path d="M460.17 180.939C460.688 180.293 460.585 179.348 459.939 178.83L449.409 170.382C448.763 169.863 447.819 169.967 447.3 170.613C446.782 171.259 446.885 172.203 447.531 172.722L456.891 180.231L449.382 189.591C448.863 190.237 448.967 191.181 449.613 191.7C450.259 192.218 451.203 192.115 451.722 191.469L460.17 180.939ZM66.5 484.011C67.16 397.87 146.218 215.819 459.164 181.491L458.836 178.509C144.582 212.981 64.1733 396.13 63.5 483.989L66.5 484.011Z" fill="#B5B5B5"/>
</g>
<defs>
<clipPath id="clip0_2_15">
<rect width="484" height="484" fill="white"/>
</clipPath>
</defs>
</svg>
